<?xml version="1.0" encoding="utf-8"?>
<!-- Generator: Adobe Illustrator 23.1.1, SVG Export Plug-In . SVG Version: 6.00 Build 0)  -->
<svg version="1.1" id="Layer_1" xmlns="http://www.w3.org/2000/svg" xmlns:xlink="http://www.w3.org/1999/xlink" x="0px" y="0px"
	 viewBox="0 0 123.4 50.7" style="enable-background:new 0 0 123.4 50.7;" xml:space="preserve">
<style type="text/css">
	.st0{fill:#272727;}
</style>
<title>logo</title>
<g>
	<g id="Layer_1-2">
		<path class="st0" d="M123.4,50.6c0,0-13.3-38.5-40.3-42.4S54.9,6.6,46.2,0c0,0,9.2,16.5,38.9,21.3S120.8,47.2,123.4,50.6z"/>
		<path class="st0" d="M113.8,42.1c0,0-19.6-16.9-33-5.9S67.5,49.1,61.3,49.4c0,0,10,5.5,25-6.2S111.5,41.3,113.8,42.1z"/>
		<path class="st0" d="M100.3,31.3c0,0-20.7-14.5-32.7-1.5s-11.5,14.9-17.5,16c0,0,10.2,4.2,23.6-9.6S98,30.9,100.3,31.3z"/>
		<path class="st0" d="M71.5,22.6C59.5,20.9,48.6,15,40.6,6c0,0-21.8,11.6-40.6,1.3C0,7.3,23.6,32.1,71.5,22.6z"/>
		<path class="st0" d="M62.8,28.9C63,28.6,56.2,30,46.1,29c0,0-11.3,13.2-23.7,10.2C22.4,39.2,46.4,50,62.8,28.9z"/>
		<path class="st0" d="M39.5,29.1c-4.2-0.4-8.4-1.4-12.3-3c0,0-11.4,4.1-24.4-3.3C2.7,22.9,20.8,43.3,39.5,29.1z"/>
	</g>
</g>
</svg>
