<svg xmlns="http://www.w3.org/2000/svg" class="logo__svg" viewBox="0 0 193.55 89.58" xmlns:xlink="http://www.w3.org/1999/xlink">
        <g id="ptc-text" class="group-text">
          <path d="M93.1,75.67a3.4,3.4,0,0,1,1.93.56l.23.14a1.52,1.52,0,0,0,1,.34h0a1.46,1.46,0,0,0,1.53-1.38c0-1.34-2.35-2.48-4.82-2.48-4.07,0-5.93,2.41-5.93,6.06v4.57c0,3.66,1.86,6.06,5.93,6.06,2.47,0,4.82-1.14,4.82-2.47h0a1.46,1.46,0,0,0-1.54-1.38,1.48,1.48,0,0,0-1,.35l-.23.14a3.47,3.47,0,0,1-1.93.55c-2.1,0-2.8-1.25-2.8-3.24V78.91C90.31,76.92,91,75.67,93.1,75.67Z" transform="translate(0 0)" fill="#f04"></path>
          <path d="M107,72.85c-4.35,0-6.05,2.78-6.05,6.06v4.57c0,3.38,2,6.08,6.05,6.08s6-2.7,6-6.07V78.91C113.06,75.63,111.36,72.85,107,72.85Zm2.8,10.63c0,1.85-.89,3.15-2.79,3.15s-2.8-1.3-2.8-3.15V78.91h0c0-1.87.75-3.12,2.8-3.12s2.79,1.25,2.79,3.12Z" transform="translate(0 0)" fill="#f04"></path>
          <path d="M132,74.37a1.6,1.6,0,0,0-1.68-1.52,1.62,1.62,0,0,0-1.59.88l-4.15,8.18-4.14-8.16a1.72,1.72,0,0,0-1.63-.9h-.07a1.57,1.57,0,0,0-1.61,1.53V88.11a1.54,1.54,0,0,0,1.59,1.46,1.59,1.59,0,0,0,1.67-1.46v-8L123,85.34a1.78,1.78,0,0,0,.64.64,1.76,1.76,0,0,0,2.41-.64l2.65-5.18v8a1.6,1.6,0,0,0,1.65,1.46A1.57,1.57,0,0,0,132,88.11V74.38Z" transform="translate(0 0)" fill="#f04"></path>
          <path d="M141.74,73.06h-3.42a1.78,1.78,0,0,0-1.82,1.66V88a1.63,1.63,0,0,0,3.26,0V83.81h2c3.61,0,5.93-1.92,5.93-5.34C147.67,75.65,146.11,73.06,141.74,73.06Zm0,7.81h-2V76h2c2.19,0,2.68,1.25,2.68,2.45C144.42,80.11,143.49,80.87,141.74,80.87Z" transform="translate(0 0)" fill="#f04"></path>
          <path d="M157.77,74.42c-.32-.92-.79-1.57-1.9-1.57s-1.57.67-1.88,1.57l-4.55,13.16a1.78,1.78,0,0,0-.06.51A1.55,1.55,0,0,0,151,89.57h.05a1.77,1.77,0,0,0,1.55-1.09l.77-2.33h4.94l.81,2.33a1.8,1.8,0,0,0,1.58,1.09,1.56,1.56,0,0,0,1.69-1.4.25.25,0,0,1,0-.08,2.26,2.26,0,0,0-.08-.51Zm-3.55,9.08.84-2.7.41-1.34.4-1.26.42,1.36.62,2.1.56,1.84Z" transform="translate(0 0)" fill="#f04"></path>
          <path d="M176.16,72.85a1.62,1.62,0,0,0-1.65,1.5v8.74c-2.14-3.72-3.33-5.82-5.4-9.38a1.94,1.94,0,0,0-1.58-.86h-.08a1.6,1.6,0,0,0-1.62,1.57V88.07a1.57,1.57,0,0,0,1.6,1.5,1.63,1.63,0,0,0,1.66-1.5V79.42l5.4,9.33a1.89,1.89,0,0,0,1.56.81h.07A1.62,1.62,0,0,0,177.77,88V74.35A1.57,1.57,0,0,0,176.16,72.85Z" transform="translate(0 0)" fill="#f04"></path>
          <path d="M191.45,72.86a1.51,1.51,0,0,0-1.35.69l-2.88,5.73-2.91-5.73a1.52,1.52,0,0,0-1.33-.69,1.63,1.63,0,0,0-1.65,1.5,1.75,1.75,0,0,0,.14.67l4.1,8V88h0a1.66,1.66,0,0,0,3.3,0V83l4.07-8a2.26,2.26,0,0,0,.16-.67A1.63,1.63,0,0,0,191.45,72.86Z" transform="translate(0 0)" fill="#f04"></path>
          <path d="M88.58,39.13A1.62,1.62,0,0,0,90.3,37.6V33.37h2c3.61,0,5.94-1.92,5.94-5.34,0-2.82-1.56-5.41-5.94-5.41H88.86a1.77,1.77,0,0,0-1.81,1.67V37.6A1.63,1.63,0,0,0,88.58,39.13ZM90.3,25.56h2C94.47,25.56,95,26.81,95,28c0,1.66-.93,2.42-2.68,2.42h-2Z" transform="translate(0 0)" fill="#f04"></path>
          <path d="M108.11,22.41c-4.35,0-6,2.78-6,6.06v4.58c0,3.37,2,6.08,6,6.08s6-2.71,6-6.08V28.47C114.16,25.19,112.46,22.41,108.11,22.41Zm2.8,10.64c0,1.84-.88,3.14-2.8,3.14s-2.79-1.3-2.79-3.14V28.47h0c0-1.87.75-3.12,2.79-3.12s2.8,1.25,2.8,3.12Z" transform="translate(0 0)" fill="#f04"></path>
          <path d="M123.21,36.19a6.93,6.93,0,0,1-2.3-.46,3.34,3.34,0,0,0-1.16-.28,1.54,1.54,0,0,0-1.54,1.46c0,1.61,3.26,2.22,5,2.22,3.33,0,5.79-1.86,5.79-5.07s-2.48-4.06-4.76-4.78a8.28,8.28,0,0,1-1.68-.63,1.53,1.53,0,0,1-1-1.54c0-1.37,1.07-1.76,2.21-1.76a4.66,4.66,0,0,1,1.77.35,4.08,4.08,0,0,0,1.14.25h.09a1.51,1.51,0,0,0,1.54-1.47c0-1.73-3.3-2.08-4.68-2.08-3.3,0-5.4,1.81-5.4,4.79,0,3.35,2.47,4.11,4.75,4.8.63.21,1.21.42,1.7.63a1.5,1.5,0,0,1,.95,1.57C125.63,35.47,124.82,36.19,123.21,36.19Z" transform="translate(0 0)" fill="#f04"></path>
          <path d="M142.82,25.56h2.46V37.65a1.64,1.64,0,0,0,3.26,0V25.56H151a1.6,1.6,0,0,0,1.65-1.46A1.62,1.62,0,0,0,151,22.62h-8.19a1.69,1.69,0,0,0-1.64,1.48h0A1.53,1.53,0,0,0,142.82,25.56Z" transform="translate(0 0)" fill="#f04"></path>
          <path d="M176.3,22.4a1.79,1.79,0,0,0-1.58,1.11l-1.85,5.83-1,3.18-.39,1.23-.42-1.3-.82-2.53-2-6.41a1.72,1.72,0,0,0-1.53-1.11h0A1.59,1.59,0,0,0,165,23.9a2.24,2.24,0,0,0,.07.51l4.56,13.14c.3.9.77,1.57,1.88,1.57s1.57-.65,1.9-1.57l4.55-13.14a1.79,1.79,0,0,0,.07-.51.28.28,0,0,0,0-.09A1.55,1.55,0,0,0,176.3,22.4Z" transform="translate(0 0)" fill="#f04"></path>
          <path d="M184.61,38.92h6.47a1.48,1.48,0,0,0-.3-2.94h-5.07V32.21h4.44a1.51,1.51,0,0,0,1.56-1.48,1.55,1.55,0,0,0-1.6-1.45h-4.4V25.56h4.86a1.54,1.54,0,0,0,1.61-1.44,1.59,1.59,0,0,0-1.63-1.5h-6.31a1.76,1.76,0,0,0-1.79,1.64v13C182.45,38.52,183.47,38.92,184.61,38.92Z" transform="translate(0 0)" fill="#f04"></path>
          <path d="M135.69,27a1.64,1.64,0,0,0-1.78,1.48v9.13a1.64,1.64,0,0,0,3.26,0V28.51A1.63,1.63,0,0,0,135.69,27Z" transform="translate(0 0)" fill="#f04"></path>
          <ellipse cx="135.54" cy="24.13" rx="1.73" ry="1.72" fill="#f04"></ellipse>
          <path d="M159.93,37.65V28.51A1.6,1.6,0,0,0,158.3,27a1.57,1.57,0,0,0-1.63,1.48v9.14a1.64,1.64,0,0,0,3.26,0Z" transform="translate(0 0)" fill="#f04"></path>
          <path d="M158.3,25.85a1.72,1.72,0,1,0-1.73-1.72A1.72,1.72,0,0,0,158.3,25.85Z" transform="translate(0 0)" fill="#f04"></path>
          <path d="M96.87,47.82h-8.2a1.68,1.68,0,0,0-1.62,1.48h0a1.53,1.53,0,0,0,1.62,1.45h2.47V62.85a1.64,1.64,0,0,0,3.26,0V50.76h2.47a2,2,0,0,0,.35,0,1.48,1.48,0,0,0-.35-2.94Z" transform="translate(0 0)" fill="#f04"></path>
          <path d="M111.91,47.62a1.62,1.62,0,0,0-1.78,1.47v5.39h-5V49.09a1.64,1.64,0,0,0-3.26,0V62.82a1.64,1.64,0,0,0,3.26,0V57.43h5v5.39a1.61,1.61,0,0,0,1.63,1.5,1.59,1.59,0,0,0,1.62-1.5V49.09A1.62,1.62,0,0,0,111.91,47.62Z" transform="translate(0 0)" fill="#f04"></path>
          <path d="M137.68,62.75V49.12a1.55,1.55,0,0,0-1.6-1.5,1.61,1.61,0,0,0-1.66,1.5v8.73c-2.14-3.72-3.32-5.82-5.4-9.38a1.92,1.92,0,0,0-1.58-.86h-.07a1.61,1.61,0,0,0-1.63,1.58V62.82a1.56,1.56,0,0,0,1.61,1.5,1.62,1.62,0,0,0,1.65-1.5V54.18l5.4,9.33a1.91,1.91,0,0,0,1.56.81H136A1.61,1.61,0,0,0,137.68,62.75Z" transform="translate(0 0)" fill="#f04"></path>
          <path d="M150.36,48.28l-4.6,5.2V49.09a1.66,1.66,0,0,0-1.48-1.48,1.64,1.64,0,0,0-1.78,1.48V62.82a1.64,1.64,0,0,0,3.26,0V58.1l.41-.46,4.52,6a1.63,1.63,0,0,0,1.35.67,1.59,1.59,0,0,0,1.58-1.55,1.11,1.11,0,0,0-.25-.78l-5.1-6.7,4.63-5.2a1.29,1.29,0,0,0,.4-1,1.69,1.69,0,0,0-1.61-1.48A1.89,1.89,0,0,0,150.36,48.28Z" transform="translate(0 0)" fill="#f04"></path>
          <path d="M167,64.32a1.62,1.62,0,0,0,1.65-1.5V54.18l5.4,9.33a1.91,1.91,0,0,0,1.56.81h.07a1.6,1.6,0,0,0,1.65-1.57V49.11a1.57,1.57,0,0,0-1.6-1.5,1.61,1.61,0,0,0-1.65,1.5v8.74c-2.14-3.72-3.33-5.82-5.4-9.38a2,2,0,0,0-1.59-.86H167a1.61,1.61,0,0,0-1.63,1.57V62.82A1.55,1.55,0,0,0,167,64.32Z" transform="translate(0 0)" fill="#f04"></path>
          <path d="M191.64,54.48H189a1.46,1.46,0,1,0,.07,2.91h1.21V61a3.92,3.92,0,0,1-1.93.48c-2.09,0-2.79-1.25-2.79-3.24V53.67c0-2,.7-3.24,2.79-3.24a3.54,3.54,0,0,1,1.93.56l.24.14a1.5,1.5,0,0,0,1,.34h0a1.46,1.46,0,0,0,1.53-1.38c0-1.34-2.35-2.48-4.81-2.48-4.08,0-5.94,2.41-5.94,6.06v4.58c0,3.66,1.86,6.06,5.94,6.06,2.39,0,5.28-.93,5.28-3.1V56.1C193.55,55,192.71,54.48,191.64,54.48Z" transform="translate(0 0)" fill="#f04"></path>
          <path d="M119.62,52.23a1.64,1.64,0,0,0-1.78,1.48v9.13a1.63,1.63,0,0,0,3.25,0V53.71A1.62,1.62,0,0,0,119.62,52.23Z" transform="translate(0 0)" fill="#f04"></path>
          <ellipse cx="119.46" cy="49.33" rx="1.73" ry="1.72" fill="#f04"></ellipse>
          <path d="M159,52.23a1.64,1.64,0,0,0-1.78,1.48v9.13a1.64,1.64,0,0,0,3.26,0V53.71A1.63,1.63,0,0,0,159,52.23Z" transform="translate(0 0)" fill="#f04"></path>
          <path d="M157.08,49.33a1.73,1.73,0,1,0,1.73-1.72A1.73,1.73,0,0,0,157.08,49.33Z" transform="translate(0 0)" fill="#f04"></path>
        </g>
        <g id="ptc-logo" class="group-logo">
          <path d="M69.65,24.09A30.1,30.1,0,0,0,30.05,8.47V59.71a25.5,25.5,0,0,1-.2,3.39A30.08,30.08,0,0,0,72.14,35.83,30.23,30.23,0,0,0,69.65,24.09Z" transform="translate(0 0)" fill="#25b3c3"></path>
          <path class="m" d="M27.84,62.12a29.75,29.75,0,0,1,.1-52.64l.25-.13c.61-.31,1.23-.61,1.86-.88V0A30,30,0,0,0,0,29.87v59.7a30.05,30.05,0,0,0,21.26-8.75A29.77,29.77,0,0,0,29.85,63.1c-.67-.29-1.32-.61-2-1Z" transform="translate(0 0)" fill="#f04"></path>
          <path d="M30.05,8.47c-.63.27-1.25.57-1.86.88l-.25.13a29.75,29.75,0,0,0-.1,52.64l.05,0c.64.34,1.29.66,2,1h0a25.5,25.5,0,0,0,.2-3.39Z" transform="translate(0 0)" fill="#250044"></path>
        </g>
      </svg>